<svg width="25" height="24" viewBox="0 0 25 24" fill="none" xmlns="http://www.w3.org/2000/svg">
<path d="M22.0879 13.9023C23.4355 13.9023 24.1094 14.5762 24.1094 15.9238V21.4043C24.1094 22.752 23.4355 23.4258 22.0879 23.4258H16.877C15.5293 23.4258 14.8555 22.752 14.8555 21.4043V15.9238C14.8555 12.7793 15.1849 10.0391 15.8438 7.70312C16.5326 5.33724 17.8652 3.27083 19.8418 1.50391C20.5007 0.934896 21.0547 0.860026 21.5039 1.2793L23.5254 3.16602C23.9746 3.58529 23.8698 4.0944 23.2109 4.69336C22.1927 5.5918 21.3542 6.89453 20.6953 8.60156C20.0664 10.2786 19.752 12.0456 19.752 13.9023H22.0879ZM7.26367 13.9023C8.61133 13.9023 9.28516 14.5762 9.28516 15.9238V21.4043C9.28516 22.752 8.61133 23.4258 7.26367 23.4258H2.05273C0.705078 23.4258 0.03125 22.752 0.03125 21.4043V15.9238C0.03125 12.7793 0.360677 10.0391 1.01953 7.70312C1.70833 5.33724 3.04102 3.27083 5.01758 1.50391C5.67643 0.934896 6.23047 0.860026 6.67969 1.2793L8.70117 3.16602C9.15039 3.58529 9.04557 4.0944 8.38672 4.69336C7.36849 5.5918 6.52995 6.89453 5.87109 8.60156C5.24219 10.2786 4.92773 12.0456 4.92773 13.9023H7.26367Z" fill="#CCCCCC"/>
</svg>
